<?xml version="1.0" encoding="utf-8"?>
<!-- Generator: Adobe Illustrator 24.0.1, SVG Export Plug-In . SVG Version: 6.00 Build 0)  -->
<svg version="1.1" id="Layer_1" xmlns="http://www.w3.org/2000/svg" xmlns:xlink="http://www.w3.org/1999/xlink" x="0px" y="0px"
	 viewBox="0 0 250 250" style="enable-background:new 0 0 250 250;" xml:space="preserve">
<style type="text/css">
	.st0{fill:#607D8B;}
	.st1{fill:#CFD8DC;}
</style>
<path class="st0" d="M200,250H50c-27.6,0-50-22.4-50-50V50C0,22.4,22.4,0,50,0h150c27.6,0,50,22.4,50,50v150
	C250,227.6,227.6,250,200,250z"/>
<path class="st1" d="M200,25H50c-13.8,0-25,11.2-25,25s11.2,25,25,25h150c13.8,0,25-11.2,25-25S213.8,25,200,25z"/>
<path class="st1" d="M125,100H50c-13.8,0-25,11.2-25,25s11.2,25,25,25h75c13.8,0,25-11.2,25-25S138.8,100,125,100z"/>
<path class="st1" d="M175,175H50c-13.8,0-25,11.2-25,25s11.2,25,25,25h125c13.8,0,25-11.2,25-25S188.8,175,175,175z"/>
</svg>
