<?xml version="1.0" encoding="utf-8"?>
<!-- Generator: Adobe Illustrator 24.0.1, SVG Export Plug-In . SVG Version: 6.00 Build 0)  -->
<svg version="1.1" id="Layer_1" xmlns="http://www.w3.org/2000/svg" xmlns:xlink="http://www.w3.org/1999/xlink" x="0px" y="0px"
	 viewBox="0 0 1012.1 250" style="enable-background:new 0 0 1012.1 250;" xml:space="preserve">
<style type="text/css">
	.st0{fill:#607D8B;}
	.st1{fill:#CFD8DC;}
</style>
<path class="st0" d="M200,250H50c-27.6,0-50-22.4-50-50V50C0,22.4,22.4,0,50,0h150c27.6,0,50,22.4,50,50v150
	C250,227.6,227.6,250,200,250z"/>
<path class="st1" d="M200,25H50c-13.8,0-25,11.2-25,25s11.2,25,25,25h150c13.8,0,25-11.2,25-25S213.8,25,200,25z"/>
<path class="st1" d="M125,100H50c-13.8,0-25,11.2-25,25s11.2,25,25,25h75c13.8,0,25-11.2,25-25S138.8,100,125,100z"/>
<path class="st1" d="M175,175H50c-13.8,0-25,11.2-25,25s11.2,25,25,25h125c13.8,0,25-11.2,25-25S188.8,175,175,175z"/>
<g>
	<path d="M376.3,198h32.9l-30.8-55.1c4.6-1.9,8.8-4.4,12.5-7.5c9.3-7.9,14-19.4,14-34.6c0-14.9-4.7-26.3-14-34.2
		c-9.3-7.9-21.7-11.9-36.9-11.9h-54V198h29.1v-50.8h20.2L376.3,198z M329.1,79.1h23.5c6.8,0,12.3,2,16.5,6.1c4.2,4.1,6.2,9.4,6.2,16
		c0,6.8-2.1,12.2-6.2,16.1c-4.2,3.9-9.7,5.8-16.5,5.8h-23.5V79.1z"/>
	<path d="M508.3,198c-0.3-5.3-0.4-10.6-0.5-16c-0.1-5.3-0.1-10.6-0.1-16v-32.5c0-8.2-1.8-15.1-5.5-20.7c-3.7-5.6-8.7-9.9-15.1-12.8
		c-6.4-2.9-13.8-4.4-22.3-4.4c-8.6,0-16.8,1.5-24.6,4.5c-7.8,3-13.9,6.9-18.4,11.7l12.1,18c4-3.3,8.6-5.9,14-7.8
		c5.4-1.9,10.4-2.9,15-2.9c5.3,0,9.7,1.2,13,3.7c3.3,2.5,5,6.5,5,12.1v8.3c-5.5-2.5-12.4-3.8-20.9-3.8c-8.7,0-16.2,1.3-22.3,4
		c-6.1,2.7-10.8,6.3-14,10.9c-3.2,4.6-4.8,10-4.8,16c0,8.7,3.4,15.9,10.1,21.4s15.8,8.3,27.1,8.3c11.1,0,19.2-2.8,24.6-8.3
		c1.3-1.4,2.5-2.9,3.5-4.6V198H508.3z M476.2,177.2c-3.3,2.1-7.5,3.2-12.7,3.2c-5.2,0-9.4-1.1-12.6-3.2c-3.2-2.1-4.8-4.9-4.8-8.3
		c0-3.4,1.6-6.1,4.8-8.2c3.2-2,7.4-3.1,12.6-3.1c5.3,0,9.6,1,12.8,3.1c3.2,2,4.8,4.8,4.8,8.2C481.1,172.3,479.5,175.1,476.2,177.2z"
		/>
	<path d="M614.4,106.8c-6.8-7.4-15.8-11.2-27.1-11.2c-2.9,0-6.1,0.4-9.7,1.2c-3.6,0.8-7.2,2.3-10.7,4.4c-3.1,1.9-5.9,4.4-8.4,7.6
		V97.7h-26.2V198h27.2v-54.8c0-5,0.9-9.2,2.7-12.6c1.8-3.3,4.2-5.9,7.2-7.6c3-1.7,6.4-2.6,10.2-2.6c5.5,0,9.8,1.7,13,5.1
		c3.2,3.4,4.8,9,4.8,16.8V198h27.2v-60C624.6,124.6,621.2,114.2,614.4,106.8z"/>
	<path d="M767.5,96.7c-3.6-8.6-8.6-16-15-22.3c-6.4-6.3-14-11.1-22.7-14.5c-8.7-3.4-18.2-5.1-28.4-5.1h-53.2V198h53.2
		c10.1,0,19.5-1.7,28.1-5.1c8.7-3.4,16.2-8.3,22.7-14.6c6.5-6.3,11.6-13.8,15.2-22.4c3.7-8.6,5.5-18.1,5.5-28.6v-2
		C772.9,114.7,771.1,105.3,767.5,96.7z M743.2,127.1c0,8.7-1.9,16.4-5.6,22.9c-3.8,6.5-9,11.7-15.7,15.3c-6.7,3.7-14.3,5.5-22.9,5.5
		h-21.9V81.7H699c8.9,0,16.6,1.8,23.2,5.4c6.6,3.6,11.8,8.7,15.5,15.1c3.7,6.5,5.5,14.1,5.5,22.8V127.1z"/>
	<g>
		<polygon points="784.6,120.6 802,120.6 802,198 829.2,198 829.2,97.7 784.6,97.7 		"/>
		<rect x="800.7" y="50" width="29.9" height="28.6"/>
	</g>
	<path d="M922.7,166.4c-3,3.1-6.3,5.4-9.9,6.8c-3.6,1.4-7.3,2-10.9,2c-4.8,0-9.2-1.1-13.2-3.3c-4-2.2-7.2-5.2-9.5-9.1
		c-2.3-3.9-3.5-8.6-3.5-14v-2.3c0-5.3,1.1-10,3.4-13.9c2.3-4,5.4-7,9.3-9.1c4-2.1,8.3-3.2,13.1-3.2c4,0,7.7,0.8,11.3,2.3
		c3.5,1.5,6.5,3.8,9,6.8l16.6-16.6c-4-5.3-9.2-9.5-15.8-12.6s-13.6-4.6-21.1-4.6c-10.1,0-19.1,2.1-27,6.4
		c-7.9,4.3-14.2,10.3-18.8,17.9c-4.6,7.6-7,16.5-7,26.6v2.3c0,10,2.3,18.8,6.9,26.5c4.6,7.7,10.8,13.7,18.7,18.1
		c7.9,4.4,17,6.5,27.2,6.5c7.5,0,14.6-1.6,21.3-4.7c6.7-3.1,12.1-7.3,16.2-12.5L922.7,166.4z"/>
	<path d="M1012.1,120.6V97.7h-21.9V73.3H963v24.4h-16.2v22.9H963v46.5c0,6.4,1,11.6,3,15.6c2,4,4.6,7.1,7.8,9.4
		c3.2,2.3,6.7,3.9,10.5,4.7c3.8,0.8,7.6,1.2,11.5,1.2h16.4V175H996c-1.5,0-2.8-0.5-4-1.6c-1.2-1.1-1.7-2.5-1.7-4.1v-48.7H1012.1z"/>
</g>
</svg>
